<svg xmlns="http://www.w3.org/2000/svg" width="24" height="19">
    <path fill-rule="evenodd" fill="#FFF" d="M21.065 18.145H2.935C1.316 18.145 0 16.848 0 15.253V3.042C0 1.447 1.316.15 2.935.15H21.07c1.619 0 2.935 1.301 2.929 2.897v12.206c0 1.595-1.315 2.892-2.934 2.892zm1.594-2.892V3.047c0-.866-.715-1.571-1.594-1.571H2.935c-.879 0-1.594.705-1.594 1.571v12.206c0 .866.715 1.571 1.594 1.571H21.07c.879 0 1.594-.705 1.594-1.571h-.005zm-1.604.191a.671.671 0 0 1-.487.206.673.673 0 0 1-.462-.181l-5.969-5.588-1.673 1.478a.674.674 0 0 1-.894.005L9.941 9.93l-6.003 5.534a.674.674 0 0 1-.457.176.69.69 0 0 1-.492-.21.656.656 0 0 1 .03-.934l5.914-5.457L2.994 3.81a.653.653 0 0 1-.054-.935.677.677 0 0 1 .948-.054l6.426 5.666c.04.029.074.059.109.093 0 .005.005.01.01.015l1.579 1.389 8.094-7.158a.682.682 0 0 1 .949.049.658.658 0 0 1-.05.935l-5.869 5.186 5.894 5.514c.268.249.278.67.025.934z"/>
</svg>
